<?xml version="1.0" encoding="UTF-8"?>
<svg id="Layer_1" xmlns="http://www.w3.org/2000/svg" version="1.1" viewBox="0 0 30 30" height="30px" width="30px">
  <!-- Generator: Adobe Illustrator 29.4.0, SVG Export Plug-In . SVG Version: 2.1.0 Build 152)  -->
  <defs>
    <style>
      .st0 {
        stroke: #a93f29;
      }

      .st0, .st1 {
        fill: none;
        stroke-miterlimit: 10;
        stroke-width: 2px;
      }

      .st1 {
        stroke: #4c3321;
      }
    </style>
  </defs>
  <g id="Member">
    <path class="st1" d="M20.66,2.47c.26,0,.48.19.51.45.41,3.91-1.26,6.68-6.16,6.68s-6.58-2.77-6.16-6.68c.03-.26.25-.45.51-.45h11.32Z"/>
    <path class="st0" d="M5.42,27.23l.68-7.24c.43-4.6,4.29-8.11,8.9-8.11h0c4.62,0,8.47,3.51,8.9,8.11l.68,7.24c.05.5-.35.94-.85.94H6.27c-.5,0-.9-.43-.85-.94Z"/>
    <path class="st1" d="M22.33,3.24s1.72-.84,2.03,1.29c.07.48.04,1.01-.12,1.44-.6,1.64-2.26.83-2.26.83"/>
  </g>
</svg>